<?xml version="1.0" encoding="UTF-8" standalone="no"?><!DOCTYPE svg PUBLIC "-//W3C//DTD SVG 1.1//EN" "http://www.w3.org/Graphics/SVG/1.1/DTD/svg11.dtd"><svg width="100%" height="100%" viewBox="0 0 250 250" version="1.1" xmlns="http://www.w3.org/2000/svg" xmlns:xlink="http://www.w3.org/1999/xlink" xml:space="preserve" xmlns:serif="http://www.serif.com/" style="fill-rule:evenodd;clip-rule:evenodd;stroke-linejoin:round;stroke-miterlimit:2;"><g><path d="M49.857,130.281c-1.126,2.467 -0.739,5.364 1.004,7.442c1.737,2.08 4.521,2.984 7.158,2.308c7.791,-2.005 17.794,-3.014 26.808,0.861c7.016,-18.615 14.983,-33.475 22.231,-44.8c-13.3,-2.036 -40.966,-1.298 -57.201,34.189Z" style="fill:#f05c42;fill-rule:nonzero;"/><path d="M71.826,110.813c10.509,-5.315 21.349,-7.1 29.693,-5.571c1.874,-3.274 3.729,-6.322 5.539,-9.15c-13.3,-2.036 -40.966,-1.298 -57.201,34.189c-0.318,0.696 -0.511,1.426 -0.591,2.163c3.49,-7.957 11.583,-16.081 22.56,-21.632Z" style="fill:#f76c59;fill-rule:nonzero;"/><path d="M120.53,200.953c-2.468,1.127 -5.364,0.739 -7.442,-1.003c-2.081,-1.738 -2.984,-4.522 -2.308,-7.157c2.005,-7.792 3.013,-17.796 -0.861,-26.81c18.614,-7.016 33.475,-14.982 44.8,-22.23c2.036,13.3 1.297,40.965 -34.189,57.2Z" style="fill:#f05c42;fill-rule:nonzero;"/><path d="M139.998,178.985c5.315,-10.51 7.1,-21.35 5.571,-29.693c3.273,-1.874 6.322,-3.729 9.15,-5.539c2.036,13.3 1.297,40.965 -34.189,57.2c-0.696,0.319 -1.427,0.512 -2.163,0.592c7.957,-3.49 16.08,-11.583 21.631,-22.56Z" style="fill:#f76c59;fill-rule:nonzero;"/><path d="M86.083,195.253c-8.606,8.606 -61.619,30.454 -61.619,30.454c-0,0 21.848,-53.013 30.454,-61.619c8.606,-8.605 22.559,-8.605 31.164,0c8.606,8.606 8.606,22.56 0.001,31.165Z" style="fill:#ffef00;fill-rule:nonzero;"/><path d="M85.568,192.303c-7.649,7.649 -54.768,27.068 -54.768,27.068c0,-0 19.42,-47.118 27.069,-54.769c7.649,-7.648 20.05,-7.648 27.699,0.001c7.649,7.65 7.649,20.05 0,27.7Z" style="fill:#ffd500;fill-rule:nonzero;"/><path d="M85.054,189.352c-6.692,6.693 -47.917,23.682 -47.917,23.682c-0,0 16.99,-41.224 23.682,-47.917c6.692,-6.691 17.542,-6.691 24.234,0c6.693,6.693 6.693,17.543 0.001,24.235Z" style="fill:#ffba00;fill-rule:nonzero;"/><path d="M84.539,186.402c-5.735,5.736 -41.066,20.295 -41.066,20.295c0,0 14.561,-35.33 20.297,-41.065c5.735,-5.735 15.034,-5.735 20.769,-0c5.736,5.735 5.736,15.034 0,20.77Z" style="fill:#ffa000;fill-rule:nonzero;"/><path d="M84.025,183.451c-4.779,4.779 -34.215,16.91 -34.215,16.91c-0,-0 12.132,-29.436 16.91,-34.214c4.779,-4.779 12.526,-4.779 17.305,-0.001c4.778,4.779 4.778,12.527 -0,17.305Z" style="fill:#ff8500;fill-rule:nonzero;"/><path d="M91.733,145.943l-20.719,10.389c0,-0 -1.267,4.715 8.56,14.755c9.828,10.038 14.514,8.813 14.514,8.813l10.824,-20.494l-13.179,-13.463Z" style="fill:#0f3041;"/><path d="M183.231,121.994c28.781,-28.207 42.361,-72.906 42.282,-88.72c-0.018,-2.39 -0.989,-4.674 -2.695,-6.357c-1.706,-1.671 -4.009,-2.594 -6.403,-2.565c-15.61,0.205 -59.65,14.394 -87.753,43.066c-0,-0 -27.64,24.799 -45.824,78.645l10.689,10.69l0.373,0.373l10.698,10.699c53.828,-18.192 78.633,-45.831 78.633,-45.831Z" style="fill:#0f3041;fill-rule:nonzero;"/><path d="M111.57,87.97c7.031,9.497 14.992,18.781 23.865,27.654c8.725,8.725 17.847,16.564 27.177,23.508c13.94,-9.699 20.619,-17.138 20.619,-17.138c28.781,-28.207 42.361,-72.906 42.282,-88.72c-0.018,-2.39 -0.989,-4.674 -2.695,-6.357c-1.706,-1.671 -4.009,-2.594 -6.403,-2.565c-15.61,0.205 -59.65,14.394 -87.753,43.066c-0,-0 -7.416,6.656 -17.092,20.552Z" style="fill:#041921;fill-rule:nonzero;"/><path d="M225.513,33.274c-0.018,-2.39 -0.989,-4.674 -2.695,-6.357c-1.706,-1.671 -4.009,-2.594 -6.403,-2.565c-15.61,0.205 -59.65,14.394 -87.753,43.066c-0,-0 -6.61,5.934 -15.491,18.289c7.024,9.66 15.061,19.1 24.062,28.102c8.86,8.859 18.144,16.779 27.641,23.724c12.4,-8.905 18.357,-15.539 18.357,-15.539c28.781,-28.207 42.361,-72.906 42.282,-88.72Z" style="fill:#f05c42;fill-rule:nonzero;"/><path d="M185.084,100.813c-9.826,9.828 -25.76,9.829 -35.589,-0.001c-9.828,-9.829 -9.825,-25.759 0.002,-35.586c9.823,-9.823 25.756,-9.829 35.585,-0c9.829,9.828 9.825,25.764 0.002,35.587Z" style="fill:#0f3041;fill-rule:nonzero;"/><path d="M182.554,98.283c-8.43,8.43 -22.097,8.43 -30.528,-0c-8.431,-8.432 -8.428,-22.097 0.001,-30.527c8.426,-8.426 22.094,-8.431 30.525,0c8.431,8.432 8.428,22.101 0.002,30.527Z" style="fill:#041921;fill-rule:nonzero;"/><path d="M180.591,96.32c-7.346,7.346 -19.255,7.346 -26.602,-0.001c-7.347,-7.346 -7.344,-19.254 0.001,-26.6c7.342,-7.342 19.252,-7.346 26.598,0.001c7.347,7.346 7.345,19.257 0.003,26.6Z" style="fill:#ffb200;fill-rule:nonzero;"/><clipPath id="_clip1"><path d="M180.591,96.32c-7.346,7.346 -19.255,7.346 -26.602,-0.001c-7.347,-7.346 -7.344,-19.254 0.001,-26.6c7.342,-7.342 19.252,-7.346 26.598,0.001c7.347,7.346 7.345,19.257 0.003,26.6Z" clip-rule="nonzero"/></clipPath><g clip-path="url(#_clip1)"><path d="M167.291,101.829c-1.624,0 -3.249,-0.209 -4.829,-0.626l7.488,-36.804c2.241,0.318 4.435,1.041 6.465,2.169l-7.154,35.159c-0.654,0.068 -1.313,0.102 -1.97,0.102Z" style="fill:#ffc133;fill-rule:nonzero;"/><path d="M159.688,100.231c-2.067,-0.913 -4.005,-2.217 -5.699,-3.912c-0.115,-0.114 -0.228,-0.231 -0.34,-0.348l6.147,-30.208c2.299,-0.998 4.757,-1.514 7.221,-1.55l-7.329,36.018Z" style="fill:#ffc133;fill-rule:nonzero;"/></g><path d="M206.148,44.163c4.565,4.565 10.514,6.899 16.498,7.013c1.942,-7.442 2.888,-13.695 2.867,-17.902c-0.018,-2.39 -0.989,-4.674 -2.695,-6.357c-1.706,-1.671 -4.009,-2.594 -6.403,-2.565c-4.083,0.053 -10.11,1.065 -17.287,3.04c0.047,6.075 2.385,12.136 7.02,16.771Z" style="fill:#0f3041;fill-rule:nonzero;"/><path d="M77.246,153.207l20.247,20.246l3.435,-6.502l-17.063,-17.063l-6.619,3.319Z" style="fill:#24505e;"/><path d="M107.334,169.389l-25.679,-25.679l-0,0.001c-1.137,-1.13 -3.168,-0.935 -4.54,0.437c-1.374,1.374 -1.567,3.409 -0.431,4.545c0.043,0.044 0.091,0.081 0.137,0.12l25.416,25.416c0.039,0.046 0.076,0.093 0.121,0.137c1.135,1.136 3.17,0.942 4.544,-0.432c1.375,-1.374 1.567,-3.409 0.432,-4.545Z" style="fill:#f05c42;fill-rule:nonzero;"/><path d="M118.412,86.818c-0.69,0.549 -1.699,0.425 -2.251,-0.278c-0.552,-0.702 -0.433,-1.712 0.263,-2.253c0.696,-0.539 1.698,-0.41 2.244,0.285c0.545,0.695 0.433,1.7 -0.256,2.246Z" style="fill:#0f3041;fill-rule:nonzero;"/><path d="M116.741,86.086c-0.044,-0.055 -0.034,-0.136 0.021,-0.178c0.46,-0.361 0.689,-0.541 1.149,-0.902c0.054,-0.043 0.133,-0.034 0.176,0.021c0.043,0.055 0.034,0.135 -0.02,0.177c-0.46,0.361 -0.689,0.543 -1.149,0.904c-0.054,0.043 -0.135,0.033 -0.177,-0.022Z" style="fill:#24505e;fill-rule:nonzero;"/><path d="M117.773,86.213c-0.365,-0.463 -0.549,-0.694 -0.912,-1.159c-0.043,-0.055 -0.033,-0.135 0.02,-0.176c0.055,-0.045 0.135,-0.034 0.177,0.021c0.363,0.464 0.546,0.695 0.911,1.158c0.043,0.055 0.034,0.135 -0.022,0.178c-0.053,0.042 -0.131,0.032 -0.174,-0.022Z" style="fill:#24505e;fill-rule:nonzero;"/><path d="M123.123,92.591c-0.675,0.567 -1.688,0.47 -2.257,-0.218c-0.57,-0.687 -0.477,-1.701 0.205,-2.258c0.681,-0.558 1.686,-0.455 2.25,0.225c0.562,0.68 0.476,1.686 -0.198,2.251Z" style="fill:#0f3041;fill-rule:nonzero;"/><path d="M121.433,91.903c-0.044,-0.054 -0.035,-0.136 0.017,-0.179c0.451,-0.372 0.675,-0.558 1.125,-0.931c0.053,-0.044 0.132,-0.036 0.177,0.017c0.045,0.053 0.037,0.133 -0.015,0.177c-0.45,0.373 -0.675,0.56 -1.125,0.933c-0.053,0.044 -0.134,0.037 -0.179,-0.017Z" style="fill:#24505e;fill-rule:nonzero;"/><path d="M122.466,92.003c-0.378,-0.452 -0.564,-0.679 -0.939,-1.134c-0.044,-0.053 -0.037,-0.135 0.016,-0.178c0.054,-0.043 0.134,-0.036 0.179,0.018c0.374,0.455 0.561,0.682 0.938,1.133c0.044,0.054 0.038,0.133 -0.014,0.177c-0.054,0.044 -0.135,0.038 -0.18,-0.016Z" style="fill:#24505e;fill-rule:nonzero;"/><path d="M127.984,98.233c-0.66,0.585 -1.673,0.514 -2.261,-0.157c-0.588,-0.672 -0.52,-1.685 0.146,-2.262c0.665,-0.576 1.672,-0.502 2.253,0.163c0.581,0.664 0.521,1.673 -0.138,2.256Z" style="fill:#0f3041;fill-rule:nonzero;"/><path d="M126.277,97.591c-0.045,-0.054 -0.039,-0.134 0.013,-0.179c0.44,-0.385 0.658,-0.577 1.099,-0.962c0.051,-0.046 0.132,-0.04 0.178,0.012c0.045,0.052 0.041,0.134 -0.011,0.179c-0.44,0.385 -0.659,0.577 -1.099,0.962c-0.052,0.046 -0.133,0.039 -0.18,-0.012Z" style="fill:#24505e;fill-rule:nonzero;"/><path d="M127.313,97.663c-0.39,-0.442 -0.583,-0.664 -0.97,-1.109c-0.046,-0.052 -0.04,-0.133 0.013,-0.178c0.052,-0.046 0.131,-0.039 0.177,0.014c0.386,0.443 0.58,0.666 0.969,1.107c0.046,0.052 0.041,0.131 -0.01,0.177c-0.053,0.046 -0.134,0.042 -0.18,-0.011Z" style="fill:#24505e;fill-rule:nonzero;"/><path d="M132.993,103.741c-0.644,0.601 -1.659,0.559 -2.264,-0.097c-0.606,-0.656 -0.566,-1.67 0.084,-2.264c0.65,-0.593 1.66,-0.545 2.258,0.103c0.597,0.648 0.565,1.657 -0.078,2.258Z" style="fill:#0f3041;fill-rule:nonzero;"/><path d="M131.27,103.144c-0.047,-0.051 -0.044,-0.132 0.006,-0.178c0.43,-0.396 0.644,-0.596 1.074,-0.992c0.05,-0.046 0.131,-0.042 0.178,0.009c0.048,0.052 0.044,0.132 -0.007,0.178c-0.429,0.397 -0.644,0.594 -1.074,0.991c-0.049,0.047 -0.129,0.044 -0.177,-0.008Z" style="fill:#24505e;fill-rule:nonzero;"/><path d="M132.306,103.188c-0.401,-0.431 -0.601,-0.646 -0.999,-1.08c-0.047,-0.052 -0.043,-0.131 0.008,-0.177c0.052,-0.048 0.132,-0.045 0.178,0.007c0.398,0.433 0.597,0.648 0.997,1.079c0.047,0.051 0.045,0.132 -0.006,0.18c-0.05,0.046 -0.131,0.042 -0.178,-0.009Z" style="fill:#24505e;fill-rule:nonzero;"/><path d="M138.143,109.112c-0.627,0.618 -1.643,0.603 -2.265,-0.036c-0.623,-0.639 -0.611,-1.655 0.024,-2.266c0.634,-0.611 1.643,-0.588 2.259,0.043c0.615,0.632 0.61,1.642 -0.018,2.259Z" style="fill:#0f3041;fill-rule:nonzero;"/><path d="M136.407,108.56c-0.049,-0.05 -0.049,-0.129 0.001,-0.178c0.42,-0.406 0.629,-0.61 1.047,-1.018c0.049,-0.047 0.128,-0.046 0.177,0.004c0.049,0.05 0.048,0.13 -0.001,0.178c-0.418,0.407 -0.627,0.612 -1.045,1.019c-0.049,0.048 -0.13,0.046 -0.179,-0.005Z" style="fill:#24505e;fill-rule:nonzero;"/><path d="M137.443,108.579c-0.412,-0.421 -0.617,-0.632 -1.027,-1.054c-0.048,-0.05 -0.047,-0.132 0.003,-0.179c0.05,-0.049 0.131,-0.046 0.179,0.004c0.409,0.423 0.612,0.633 1.024,1.053c0.049,0.05 0.049,0.13 -0,0.179c-0.05,0.048 -0.129,0.047 -0.179,-0.003Z" style="fill:#24505e;fill-rule:nonzero;"/><path d="M143.436,114.344c-0.611,0.634 -1.626,0.648 -2.265,0.025c-0.639,-0.622 -0.655,-1.638 -0.036,-2.266c0.618,-0.626 1.627,-0.632 2.257,-0.017c0.633,0.616 0.655,1.624 0.044,2.258Z" style="fill:#0f3041;fill-rule:nonzero;"/><path d="M141.686,113.839c-0.05,-0.048 -0.052,-0.128 -0.004,-0.177c0.408,-0.419 0.611,-0.628 1.02,-1.046c0.047,-0.049 0.127,-0.05 0.177,-0.002c0.05,0.048 0.051,0.128 0.003,0.177c-0.407,0.419 -0.611,0.629 -1.018,1.048c-0.048,0.049 -0.128,0.049 -0.178,0Z" style="fill:#24505e;fill-rule:nonzero;"/><path d="M142.722,113.83c-0.423,-0.409 -0.634,-0.615 -1.055,-1.027c-0.049,-0.049 -0.05,-0.128 -0.002,-0.177c0.048,-0.051 0.128,-0.051 0.178,-0.002c0.42,0.412 0.632,0.617 1.055,1.025c0.05,0.049 0.051,0.128 0.002,0.178c-0.048,0.05 -0.128,0.052 -0.178,0.003Z" style="fill:#24505e;fill-rule:nonzero;"/><path d="M148.866,119.432c-0.594,0.65 -1.608,0.69 -2.264,0.086c-0.655,-0.606 -0.697,-1.62 -0.095,-2.264c0.601,-0.642 1.609,-0.676 2.257,-0.077c0.648,0.598 0.695,1.606 0.102,2.255Z" style="fill:#0f3041;fill-rule:nonzero;"/><path d="M147.102,118.977c-0.05,-0.048 -0.055,-0.128 -0.009,-0.18c0.398,-0.428 0.595,-0.644 0.991,-1.073c0.048,-0.05 0.128,-0.053 0.179,-0.006c0.051,0.048 0.055,0.127 0.007,0.177c-0.395,0.43 -0.592,0.647 -0.988,1.076c-0.047,0.05 -0.128,0.052 -0.18,0.006Z" style="fill:#24505e;fill-rule:nonzero;"/><path d="M148.138,118.938c-0.434,-0.398 -0.649,-0.597 -1.081,-0.998c-0.05,-0.048 -0.054,-0.127 -0.007,-0.177c0.048,-0.051 0.128,-0.056 0.177,-0.008c0.432,0.4 0.648,0.599 1.081,0.997c0.051,0.047 0.057,0.128 0.01,0.179c-0.046,0.051 -0.129,0.055 -0.18,0.007Z" style="fill:#24505e;fill-rule:nonzero;"/><path d="M154.432,124.378c-0.576,0.665 -1.591,0.733 -2.263,0.145c-0.672,-0.588 -0.74,-1.601 -0.156,-2.261c0.584,-0.66 1.592,-0.719 2.256,-0.138c0.664,0.581 0.738,1.588 0.163,2.254Z" style="fill:#0f3041;fill-rule:nonzero;"/><path d="M152.655,123.967c-0.053,-0.045 -0.057,-0.125 -0.012,-0.176c0.385,-0.44 0.578,-0.661 0.962,-1.1c0.046,-0.052 0.127,-0.058 0.179,-0.012c0.053,0.046 0.057,0.126 0.012,0.179c-0.385,0.439 -0.575,0.659 -0.961,1.099c-0.045,0.052 -0.128,0.057 -0.18,0.01Z" style="fill:#24505e;fill-rule:nonzero;"/><path d="M153.691,123.902c-0.444,-0.386 -0.665,-0.579 -1.108,-0.968c-0.052,-0.046 -0.057,-0.127 -0.011,-0.179c0.046,-0.052 0.125,-0.056 0.177,-0.01c0.443,0.389 0.663,0.582 1.107,0.968c0.052,0.045 0.06,0.125 0.014,0.178c-0.045,0.052 -0.127,0.057 -0.179,0.011Z" style="fill:#24505e;fill-rule:nonzero;"/><path d="M160.131,129.174c-0.559,0.682 -1.572,0.777 -2.259,0.206c-0.687,-0.569 -0.783,-1.582 -0.216,-2.257c0.564,-0.675 1.571,-0.76 2.252,-0.196c0.679,0.563 0.78,1.567 0.223,2.247Z" style="fill:#0f3041;fill-rule:nonzero;"/><path d="M158.342,128.813c-0.054,-0.045 -0.059,-0.126 -0.015,-0.178c0.372,-0.449 0.559,-0.676 0.931,-1.126c0.045,-0.052 0.124,-0.059 0.179,-0.014c0.053,0.044 0.06,0.124 0.016,0.177c-0.372,0.45 -0.558,0.674 -0.93,1.124c-0.045,0.052 -0.126,0.062 -0.181,0.017Z" style="fill:#24505e;fill-rule:nonzero;"/><path d="M159.378,128.719c-0.456,-0.374 -0.683,-0.562 -1.135,-0.94c-0.055,-0.044 -0.06,-0.125 -0.016,-0.178c0.045,-0.054 0.124,-0.059 0.177,-0.015c0.454,0.377 0.678,0.565 1.133,0.939c0.054,0.044 0.062,0.125 0.018,0.178c-0.043,0.054 -0.123,0.061 -0.177,0.016Z" style="fill:#24505e;fill-rule:nonzero;"/><path d="M165.957,133.821c-0.539,0.696 -1.549,0.816 -2.251,0.265c-0.703,-0.553 -0.827,-1.562 -0.279,-2.253c0.547,-0.688 1.552,-0.8 2.247,-0.255c0.695,0.545 0.823,1.548 0.283,2.243Z" style="fill:#0f3041;fill-rule:nonzero;"/><path d="M164.161,133.506c-0.056,-0.043 -0.064,-0.123 -0.022,-0.177c0.361,-0.46 0.542,-0.69 0.903,-1.149c0.042,-0.055 0.122,-0.065 0.177,-0.022c0.055,0.044 0.064,0.124 0.022,0.178c-0.361,0.46 -0.542,0.688 -0.902,1.149c-0.042,0.053 -0.123,0.064 -0.178,0.021Z" style="fill:#24505e;fill-rule:nonzero;"/><path d="M165.193,133.385c-0.466,-0.362 -0.696,-0.545 -1.159,-0.91c-0.055,-0.044 -0.065,-0.123 -0.022,-0.176c0.043,-0.055 0.122,-0.064 0.177,-0.022c0.463,0.365 0.693,0.548 1.159,0.91c0.054,0.044 0.064,0.123 0.021,0.179c-0.041,0.053 -0.122,0.062 -0.176,0.019Z" style="fill:#24505e;fill-rule:nonzero;"/></g></svg>