<?xml version="1.0" encoding="UTF-8" standalone="no"?><!DOCTYPE svg PUBLIC "-//W3C//DTD SVG 1.1//EN" "http://www.w3.org/Graphics/SVG/1.1/DTD/svg11.dtd"><svg width="100%" height="100%" viewBox="0 0 120 120" version="1.1" xmlns="http://www.w3.org/2000/svg" xmlns:xlink="http://www.w3.org/1999/xlink" xml:space="preserve" xmlns:serif="http://www.serif.com/" style="fill-rule:evenodd;clip-rule:evenodd;stroke-linejoin:round;stroke-miterlimit:2;"><g><path d="M23.931,62.535c-0.54,1.184 -0.354,2.575 0.482,3.572c0.834,0.999 2.17,1.432 3.436,1.108c3.74,-0.963 8.541,-1.447 12.868,0.413c3.368,-8.935 7.192,-16.068 10.671,-21.504c-6.384,-0.977 -19.664,-0.623 -27.457,16.411Z" style="fill:#f05c42;fill-rule:nonzero;"/><path d="M34.476,53.19c5.045,-2.551 10.248,-3.408 14.253,-2.674c0.9,-1.571 1.79,-3.034 2.659,-4.392c-6.384,-0.977 -19.664,-0.623 -27.457,16.411c-0.152,0.334 -0.245,0.685 -0.283,1.038c1.675,-3.819 5.559,-7.719 10.828,-10.383Z" style="fill:#f76c59;fill-rule:nonzero;"/><path d="M57.854,96.458c-1.184,0.54 -2.574,0.354 -3.572,-0.482c-0.998,-0.834 -1.432,-2.17 -1.108,-3.436c0.963,-3.74 1.447,-8.541 -0.413,-12.868c8.935,-3.368 16.068,-7.192 21.504,-10.67c0.977,6.384 0.623,19.663 -16.411,27.456Z" style="fill:#f05c42;fill-rule:nonzero;"/><path d="M67.199,85.913c2.551,-5.045 3.408,-10.248 2.674,-14.253c1.571,-0.9 3.035,-1.79 4.392,-2.658c0.977,6.384 0.623,19.663 -16.411,27.456c-0.334,0.152 -0.684,0.245 -1.038,0.284c3.82,-1.676 7.719,-5.56 10.383,-10.829Z" style="fill:#f76c59;fill-rule:nonzero;"/><path d="M41.32,93.721c-4.131,4.131 -29.578,14.619 -29.578,14.619c0,-0 10.488,-25.447 14.619,-29.578c4.131,-4.13 10.828,-4.13 14.959,0c4.13,4.131 4.13,10.829 -0,14.959Z" style="fill:#ffef00;fill-rule:nonzero;"/><path d="M41.073,92.305c-3.672,3.672 -26.289,12.993 -26.289,12.993c0,0 9.321,-22.617 12.993,-26.289c3.671,-3.671 9.624,-3.671 13.296,0.001c3.671,3.671 3.671,9.624 -0,13.295Z" style="fill:#ffd500;fill-rule:nonzero;"/><path d="M40.826,90.889c-3.212,3.213 -23,11.367 -23,11.367c-0,0 8.155,-19.787 11.367,-23c3.212,-3.212 8.42,-3.212 11.633,0c3.212,3.213 3.212,8.421 0,11.633Z" style="fill:#ffba00;fill-rule:nonzero;"/><path d="M40.579,89.473c-2.753,2.753 -19.712,9.742 -19.712,9.742c0,-0 6.99,-16.959 9.743,-19.712c2.752,-2.753 7.216,-2.753 9.969,0c2.753,2.753 2.753,7.217 -0,9.97Z" style="fill:#ffa000;fill-rule:nonzero;"/><path d="M40.332,88.056c-2.294,2.294 -16.423,8.117 -16.423,8.117c-0,0 5.823,-14.129 8.117,-16.423c2.293,-2.293 6.012,-2.294 8.306,-0c2.294,2.294 2.294,6.013 -0,8.306Z" style="fill:#ff8500;fill-rule:nonzero;"/><path d="M44.032,70.053l-9.945,4.986c-0,0 -0.608,2.264 4.108,7.083c4.718,4.818 6.967,4.23 6.967,4.23l5.196,-9.837l-6.326,-6.462Z" style="fill:#0f3041;"/><path d="M87.951,58.557c13.815,-13.539 20.333,-34.995 20.295,-42.585c-0.008,-1.148 -0.474,-2.244 -1.293,-3.052c-0.819,-0.802 -1.925,-1.245 -3.074,-1.231c-7.493,0.098 -28.632,6.909 -42.121,20.672c-0,-0 -13.268,11.903 -21.996,37.749l5.131,5.132l0.179,0.178l5.135,5.136c25.837,-8.732 37.744,-21.999 37.744,-21.999Z" style="fill:#0f3041;fill-rule:nonzero;"/><path d="M53.554,42.226c3.374,4.558 7.196,9.014 11.455,13.274c4.188,4.188 8.566,7.95 13.045,11.283c6.691,-4.655 9.897,-8.226 9.897,-8.226c13.815,-13.539 20.333,-34.995 20.295,-42.585c-0.008,-1.148 -0.474,-2.244 -1.293,-3.052c-0.819,-0.802 -1.925,-1.245 -3.074,-1.231c-7.493,0.098 -28.632,6.909 -42.121,20.672c-0,-0 -3.56,3.194 -8.204,9.865Z" style="fill:#041921;fill-rule:nonzero;"/><path d="M108.246,15.972c-0.008,-1.148 -0.474,-2.244 -1.293,-3.052c-0.819,-0.802 -1.925,-1.245 -3.074,-1.231c-7.493,0.098 -28.632,6.909 -42.121,20.672c-0,-0 -3.173,2.848 -7.436,8.779c3.372,4.636 7.229,9.167 11.55,13.488c4.253,4.253 8.709,8.054 13.268,11.388c5.952,-4.275 8.811,-7.459 8.811,-7.459c13.815,-13.539 20.333,-34.995 20.295,-42.585Z" style="fill:#f05c42;fill-rule:nonzero;"/><path d="M88.84,48.39c-4.716,4.718 -12.364,4.718 -17.082,-0c-4.718,-4.718 -4.716,-12.364 0,-17.082c4.716,-4.715 12.364,-4.718 17.082,0c4.717,4.718 4.716,12.367 0,17.082Z" style="fill:#0f3041;fill-rule:nonzero;"/><path d="M87.626,47.176c-4.046,4.046 -10.607,4.046 -14.654,-0c-4.046,-4.048 -4.045,-10.607 0.001,-14.653c4.045,-4.044 10.605,-4.047 14.652,-0c4.047,4.047 4.045,10.608 0.001,14.653Z" style="fill:#041921;fill-rule:nonzero;"/><path d="M86.684,46.234c-3.526,3.526 -9.243,3.526 -12.769,-0.001c-3.527,-3.526 -3.525,-9.242 0,-12.768c3.525,-3.524 9.241,-3.526 12.767,0c3.527,3.527 3.526,9.244 0.002,12.769Z" style="fill:#ffb200;fill-rule:nonzero;"/><clipPath id="_clip1"><path d="M86.684,46.234c-3.526,3.526 -9.243,3.526 -12.769,-0.001c-3.527,-3.526 -3.525,-9.242 0,-12.768c3.525,-3.524 9.241,-3.526 12.767,0c3.527,3.527 3.526,9.244 0.002,12.769Z" clip-rule="nonzero"/></clipPath><g clip-path="url(#_clip1)"><path d="M80.3,48.878c-0.78,-0 -1.56,-0.1 -2.318,-0.301l3.594,-17.665c1.076,0.152 2.129,0.499 3.103,1.04l-3.434,16.877c-0.314,0.033 -0.63,0.049 -0.945,0.049Z" style="fill:#ffc133;fill-rule:nonzero;"/><path d="M76.65,48.111c-0.992,-0.439 -1.922,-1.064 -2.735,-1.878c-0.055,-0.055 -0.11,-0.111 -0.163,-0.167l2.95,-14.5c1.104,-0.479 2.284,-0.727 3.466,-0.744l-3.518,17.289Z" style="fill:#ffc133;fill-rule:nonzero;"/></g><path d="M98.951,21.198c2.191,2.192 5.047,3.312 7.919,3.367c0.932,-3.573 1.386,-6.574 1.376,-8.593c-0.008,-1.148 -0.474,-2.244 -1.293,-3.052c-0.819,-0.802 -1.925,-1.245 -3.074,-1.231c-1.959,0.026 -4.853,0.511 -8.297,1.459c0.022,2.916 1.144,5.825 3.369,8.05Z" style="fill:#0f3041;fill-rule:nonzero;"/><path d="M37.078,73.54l9.718,9.718l1.649,-3.122l-8.19,-8.19l-3.177,1.594Z" style="fill:#24505e;"/><path d="M51.52,81.307l-12.326,-12.326l0,0c-0.546,-0.542 -1.52,-0.449 -2.179,0.21c-0.659,0.659 -0.752,1.636 -0.207,2.181c0.021,0.022 0.044,0.04 0.066,0.058l12.2,12.2c0.018,0.022 0.036,0.044 0.058,0.066c0.545,0.545 1.522,0.452 2.181,-0.208c0.66,-0.659 0.752,-1.636 0.207,-2.181Z" style="fill:#f05c42;fill-rule:nonzero;"/><path d="M56.838,41.673c-0.332,0.263 -0.816,0.203 -1.081,-0.134c-0.265,-0.337 -0.207,-0.822 0.127,-1.081c0.334,-0.259 0.815,-0.197 1.077,0.137c0.261,0.333 0.207,0.815 -0.123,1.078Z" style="fill:#0f3041;fill-rule:nonzero;"/><path d="M56.036,41.321c-0.021,-0.026 -0.016,-0.065 0.01,-0.085c0.22,-0.174 0.33,-0.26 0.551,-0.433c0.026,-0.021 0.064,-0.017 0.085,0.01c0.02,0.026 0.016,0.065 -0.01,0.085c-0.221,0.173 -0.33,0.26 -0.551,0.434c-0.026,0.02 -0.065,0.016 -0.085,-0.011Z" style="fill:#24505e;fill-rule:nonzero;"/><path d="M56.531,41.382c-0.175,-0.222 -0.263,-0.333 -0.438,-0.556c-0.02,-0.026 -0.016,-0.065 0.01,-0.085c0.026,-0.021 0.065,-0.016 0.085,0.011c0.174,0.222 0.262,0.333 0.437,0.555c0.021,0.027 0.016,0.065 -0.01,0.086c-0.026,0.02 -0.063,0.015 -0.084,-0.011Z" style="fill:#24505e;fill-rule:nonzero;"/><path d="M59.099,44.444c-0.324,0.272 -0.81,0.225 -1.083,-0.105c-0.274,-0.33 -0.229,-0.816 0.098,-1.084c0.327,-0.268 0.809,-0.218 1.08,0.108c0.27,0.327 0.229,0.809 -0.095,1.081Z" style="fill:#0f3041;fill-rule:nonzero;"/><path d="M58.288,44.114c-0.021,-0.026 -0.017,-0.066 0.008,-0.086c0.216,-0.179 0.324,-0.268 0.54,-0.447c0.025,-0.021 0.064,-0.018 0.085,0.008c0.021,0.025 0.018,0.064 -0.007,0.085c-0.216,0.179 -0.324,0.269 -0.54,0.448c-0.026,0.021 -0.064,0.017 -0.086,-0.008Z" style="fill:#24505e;fill-rule:nonzero;"/><path d="M58.784,44.162c-0.182,-0.218 -0.271,-0.326 -0.451,-0.545c-0.021,-0.025 -0.018,-0.065 0.007,-0.085c0.026,-0.021 0.065,-0.018 0.086,0.008c0.18,0.219 0.27,0.328 0.451,0.544c0.021,0.026 0.018,0.064 -0.007,0.085c-0.026,0.021 -0.065,0.019 -0.086,-0.007Z" style="fill:#24505e;fill-rule:nonzero;"/><path d="M61.432,47.152c-0.316,0.28 -0.803,0.247 -1.085,-0.076c-0.282,-0.322 -0.25,-0.808 0.07,-1.085c0.319,-0.277 0.803,-0.241 1.082,0.078c0.279,0.319 0.25,0.803 -0.067,1.083Z" style="fill:#0f3041;fill-rule:nonzero;"/><path d="M60.613,46.844c-0.022,-0.026 -0.019,-0.065 0.006,-0.086c0.211,-0.185 0.316,-0.277 0.528,-0.462c0.024,-0.022 0.063,-0.019 0.085,0.006c0.022,0.025 0.02,0.064 -0.005,0.086c-0.211,0.184 -0.317,0.277 -0.528,0.462c-0.025,0.022 -0.063,0.018 -0.086,-0.006Z" style="fill:#24505e;fill-rule:nonzero;"/><path d="M61.11,46.878c-0.187,-0.212 -0.28,-0.318 -0.465,-0.532c-0.022,-0.025 -0.019,-0.064 0.006,-0.086c0.025,-0.022 0.063,-0.018 0.085,0.007c0.185,0.213 0.278,0.32 0.465,0.532c0.022,0.025 0.02,0.063 -0.005,0.085c-0.025,0.022 -0.064,0.02 -0.086,-0.006Z" style="fill:#24505e;fill-rule:nonzero;"/><path d="M63.837,49.796c-0.309,0.288 -0.797,0.268 -1.087,-0.047c-0.291,-0.315 -0.272,-0.801 0.04,-1.087c0.312,-0.284 0.797,-0.261 1.084,0.05c0.287,0.311 0.271,0.795 -0.037,1.084Z" style="fill:#0f3041;fill-rule:nonzero;"/><path d="M63.01,49.509c-0.023,-0.024 -0.022,-0.063 0.002,-0.085c0.207,-0.19 0.31,-0.286 0.516,-0.476c0.024,-0.023 0.063,-0.02 0.086,0.004c0.022,0.025 0.02,0.063 -0.004,0.085c-0.206,0.191 -0.309,0.285 -0.515,0.476c-0.024,0.023 -0.063,0.021 -0.085,-0.004Z" style="fill:#24505e;fill-rule:nonzero;"/><path d="M63.507,49.53c-0.193,-0.207 -0.289,-0.31 -0.48,-0.518c-0.022,-0.025 -0.02,-0.063 0.004,-0.085c0.025,-0.023 0.063,-0.022 0.086,0.003c0.191,0.208 0.286,0.311 0.478,0.518c0.023,0.025 0.022,0.064 -0.003,0.086c-0.024,0.023 -0.062,0.021 -0.085,-0.004Z" style="fill:#24505e;fill-rule:nonzero;"/><path d="M66.309,52.374c-0.301,0.296 -0.789,0.289 -1.088,-0.018c-0.299,-0.306 -0.293,-0.794 0.012,-1.087c0.304,-0.293 0.789,-0.283 1.084,0.021c0.295,0.303 0.293,0.788 -0.008,1.084Z" style="fill:#0f3041;fill-rule:nonzero;"/><path d="M65.475,52.109c-0.023,-0.024 -0.023,-0.062 0.001,-0.085c0.201,-0.196 0.302,-0.294 0.502,-0.489c0.024,-0.023 0.062,-0.023 0.086,0.001c0.023,0.024 0.022,0.063 -0.001,0.086c-0.201,0.196 -0.301,0.294 -0.502,0.489c-0.023,0.023 -0.062,0.022 -0.086,-0.002Z" style="fill:#24505e;fill-rule:nonzero;"/><path d="M65.973,52.118c-0.198,-0.202 -0.297,-0.303 -0.493,-0.506c-0.024,-0.024 -0.023,-0.063 0.001,-0.086c0.024,-0.024 0.063,-0.022 0.086,0.002c0.197,0.203 0.294,0.304 0.491,0.506c0.024,0.023 0.024,0.062 0,0.085c-0.023,0.023 -0.062,0.023 -0.085,-0.001Z" style="fill:#24505e;fill-rule:nonzero;"/><path d="M68.849,54.885c-0.293,0.305 -0.78,0.311 -1.087,0.012c-0.307,-0.299 -0.314,-0.786 -0.017,-1.087c0.296,-0.301 0.781,-0.304 1.083,-0.009c0.304,0.296 0.314,0.78 0.021,1.084Z" style="fill:#0f3041;fill-rule:nonzero;"/><path d="M68.009,54.643c-0.024,-0.023 -0.025,-0.062 -0.002,-0.085c0.196,-0.201 0.294,-0.302 0.49,-0.502c0.023,-0.024 0.061,-0.024 0.085,-0.001c0.024,0.023 0.024,0.061 0.001,0.085c-0.195,0.201 -0.293,0.302 -0.488,0.503c-0.023,0.023 -0.062,0.023 -0.086,-0Z" style="fill:#24505e;fill-rule:nonzero;"/><path d="M68.506,54.638c-0.202,-0.196 -0.304,-0.295 -0.506,-0.492c-0.024,-0.024 -0.024,-0.062 -0.001,-0.086c0.023,-0.024 0.062,-0.024 0.086,-0c0.201,0.197 0.303,0.296 0.506,0.492c0.024,0.023 0.025,0.061 0.001,0.085c-0.023,0.024 -0.062,0.025 -0.086,0.001Z" style="fill:#24505e;fill-rule:nonzero;"/><path d="M71.456,57.328c-0.286,0.312 -0.772,0.331 -1.087,0.041c-0.315,-0.291 -0.335,-0.778 -0.046,-1.087c0.289,-0.308 0.773,-0.324 1.084,-0.037c0.311,0.287 0.333,0.771 0.049,1.083Z" style="fill:#0f3041;fill-rule:nonzero;"/><path d="M70.609,57.109c-0.024,-0.023 -0.026,-0.061 -0.004,-0.086c0.191,-0.206 0.285,-0.309 0.475,-0.515c0.023,-0.024 0.062,-0.026 0.086,-0.003c0.025,0.023 0.026,0.061 0.004,0.085c-0.19,0.206 -0.285,0.31 -0.475,0.516c-0.022,0.024 -0.061,0.025 -0.086,0.003Z" style="fill:#24505e;fill-rule:nonzero;"/><path d="M71.106,57.09c-0.208,-0.191 -0.311,-0.286 -0.518,-0.479c-0.025,-0.023 -0.026,-0.061 -0.004,-0.085c0.023,-0.024 0.061,-0.026 0.085,-0.004c0.207,0.192 0.311,0.288 0.519,0.479c0.024,0.023 0.027,0.061 0.005,0.086c-0.023,0.024 -0.062,0.026 -0.087,0.003Z" style="fill:#24505e;fill-rule:nonzero;"/><path d="M74.127,59.701c-0.276,0.32 -0.763,0.352 -1.086,0.07c-0.322,-0.282 -0.355,-0.769 -0.075,-1.085c0.28,-0.317 0.764,-0.346 1.083,-0.066c0.319,0.278 0.355,0.762 0.078,1.081Z" style="fill:#0f3041;fill-rule:nonzero;"/><path d="M73.274,59.504c-0.025,-0.022 -0.027,-0.06 -0.005,-0.084c0.185,-0.212 0.277,-0.318 0.461,-0.528c0.022,-0.025 0.061,-0.028 0.086,-0.006c0.026,0.022 0.028,0.06 0.006,0.086c-0.185,0.211 -0.276,0.316 -0.461,0.527c-0.022,0.025 -0.061,0.028 -0.087,0.005Z" style="fill:#24505e;fill-rule:nonzero;"/><path d="M73.772,59.473c-0.214,-0.185 -0.32,-0.278 -0.532,-0.465c-0.025,-0.022 -0.028,-0.061 -0.006,-0.086c0.022,-0.025 0.061,-0.026 0.086,-0.004c0.212,0.186 0.318,0.279 0.531,0.464c0.025,0.022 0.029,0.06 0.007,0.086c-0.022,0.025 -0.061,0.027 -0.086,0.005Z" style="fill:#24505e;fill-rule:nonzero;"/><path d="M76.863,62.004c-0.268,0.327 -0.755,0.372 -1.084,0.098c-0.33,-0.273 -0.376,-0.759 -0.104,-1.083c0.271,-0.324 0.754,-0.365 1.081,-0.094c0.326,0.27 0.374,0.752 0.107,1.079Z" style="fill:#0f3041;fill-rule:nonzero;"/><path d="M76.004,61.83c-0.026,-0.021 -0.028,-0.06 -0.007,-0.085c0.179,-0.216 0.268,-0.325 0.447,-0.541c0.021,-0.025 0.06,-0.028 0.086,-0.006c0.025,0.021 0.029,0.059 0.008,0.084c-0.179,0.216 -0.268,0.324 -0.447,0.54c-0.021,0.025 -0.061,0.03 -0.087,0.008Z" style="fill:#24505e;fill-rule:nonzero;"/><path d="M76.501,61.785c-0.218,-0.179 -0.327,-0.27 -0.545,-0.451c-0.026,-0.021 -0.028,-0.06 -0.007,-0.086c0.021,-0.025 0.059,-0.028 0.085,-0.007c0.218,0.181 0.326,0.271 0.544,0.451c0.026,0.021 0.03,0.06 0.008,0.086c-0.02,0.025 -0.059,0.029 -0.085,0.007Z" style="fill:#24505e;fill-rule:nonzero;"/><path d="M79.66,64.234c-0.259,0.334 -0.744,0.392 -1.081,0.127c-0.337,-0.265 -0.397,-0.749 -0.134,-1.081c0.263,-0.33 0.745,-0.384 1.079,-0.122c0.333,0.261 0.395,0.742 0.136,1.076Z" style="fill:#0f3041;fill-rule:nonzero;"/><path d="M78.797,64.083c-0.027,-0.021 -0.031,-0.059 -0.01,-0.085c0.173,-0.221 0.26,-0.331 0.433,-0.552c0.02,-0.026 0.059,-0.031 0.085,-0.01c0.027,0.021 0.031,0.059 0.011,0.085c-0.174,0.221 -0.26,0.331 -0.433,0.552c-0.021,0.025 -0.059,0.031 -0.086,0.01Z" style="fill:#24505e;fill-rule:nonzero;"/><path d="M79.292,64.025c-0.223,-0.174 -0.334,-0.262 -0.556,-0.437c-0.026,-0.021 -0.031,-0.059 -0.01,-0.084c0.02,-0.027 0.058,-0.031 0.085,-0.011c0.222,0.175 0.333,0.263 0.556,0.437c0.026,0.021 0.031,0.059 0.01,0.086c-0.02,0.025 -0.058,0.03 -0.085,0.009Z" style="fill:#24505e;fill-rule:nonzero;"/></g></svg>